<?xml version="1.0" encoding="utf-8"?>
<!-- Generator: Adobe Illustrator 22.1.0, SVG Export Plug-In . SVG Version: 6.00 Build 0)  -->
<svg version="1.1" id="Layer_1" xmlns="http://www.w3.org/2000/svg" xmlns:xlink="http://www.w3.org/1999/xlink" x="0px" y="0px"
	 viewBox="0 0 527.4 324.6" style="enable-background:new 0 0 527.4 324.6;" xml:space="preserve">
<style type="text/css">
	.st0{fill:#F6DD82;}
	.st1{fill:#F0CB00;}
	.st2{fill:#4681C1;}
	.st3{fill:#0067B0;}
	.st4{fill:#FFFFFF;}
</style>
<path class="st0" d="M525.7,111.1c0-45.7-61.6-85-149.7-102.2c6.7,2.6,13.2,5.3,19.3,8.3c45.3,21.8,73.8,53.7,73.8,89.3
	c0,42.8-41.3,80.3-103.4,101.3c-18.2,6.2-38.3,10.9-59.6,14C429.8,215.1,525.7,168.1,525.7,111.1z"/>
<path class="st1" d="M525.5,110c0-41.5-53.6-77.2-130.3-92.9c45.3,21.8,73.8,53.7,73.8,89.3c0,42.8-41.3,80.3-103.4,101.3
	C457.9,196,525.5,156.7,525.5,110z"/>
<path class="st0" d="M32.6,106.5c0-11.4,2.9-22.3,8.4-32.8C31.7,85.4,26.6,98,26.6,111.1c0,24.7,18,47.5,48.4,66
	C48.4,157.3,32.6,132.9,32.6,106.5z"/>
<path class="st2" d="M430.7,106.1c0,56.9-95.4,103.1-213.2,103.1C99.8,209.2,4.4,163,4.4,106.1C4.4,49.1,99.8,3,217.5,3
	C335.3,3,430.7,49.1,430.7,106.1z"/>
<g>
	<path class="st3" d="M2.7,320.4l25.5-88.8h45.1c15.9,0,28.2,1.4,37,4.3c8.8,2.9,16.1,7.5,22,13.9c5.9,6.4,8.9,13.8,8.9,22.3
		c0,8-2.5,15.4-7.5,22.3c-5,6.9-11.7,12.5-20,16.6c-8.3,4.2-16.7,6.8-25.1,7.9c-8.4,1.1-19.2,1.6-32.5,1.6L2.7,320.4z M40.8,304.7
		h18.5c18.6,0,30.9-3.6,37-10.8c6.1-7.2,9.1-14.8,9.1-23c0-15.6-10.8-23.5-32.4-23.5H57.3L40.8,304.7z"/>
	<path class="st3" d="M212.3,252.9c14.8,0,26.7,2.8,35.8,8.5c9.1,5.7,13.7,13.1,13.7,22.4c0,10.5-5.5,19.5-16.6,26.9
		c-11.1,7.4-25,11.2-41.6,11.2c-14.4,0-26.3-2.8-35.7-8.4c-9.4-5.6-14.1-12.7-14.1-21.3c0-11.3,5.4-20.7,16.2-28.1
		C180.8,256.7,194.9,252.9,212.3,252.9z M212.1,265.7c-9.3,0-15.8,3.4-19.4,10.1c-3.6,6.8-5.4,13.7-5.4,20.8c0,8.4,5.7,12.5,17,12.5
		c9.3,0,15.6-3.7,19.1-11s5.2-14,5.2-20C228.5,269.9,223,265.7,212.1,265.7z"/>
	<path class="st3" d="M350.1,272.4c-6.1,0-11.1,0.5-15,1.6c-3.9,1.1-7.5,3-10.8,5.8c-3.3,2.8-5.7,6-7.2,9.5s-3.3,9.1-5.5,16.8
		l-4.2,14.2h-34.3l19-66H324l-4.3,15c3.3-4.5,6.7-7.9,10-10.2c3.3-2.3,6.8-3.9,10.3-4.6c3.5-0.8,8.1-1.1,13.6-1.1L350.1,272.4z"/>
	<path class="st3" d="M406.9,254.4l-19,66h-34.3l19-66H406.9z M413.8,230.7l-5.4,18.8h-34.3l5.4-18.8H413.8z"/>
	<path class="st3" d="M520.3,297.3c-9.6,16.4-27.1,24.6-52.5,24.6c-15.8,0-28-2.9-36.6-8.6c-8.6-5.8-12.9-13.1-12.9-22
		c0-10,5.4-18.9,16.1-26.7s25.1-11.7,43-11.7c16.3,0,28.2,2.6,35.8,7.7c7.6,5.2,11.4,10.7,11.4,16.5v1.4l-29.5,1
		c0-4.4-1.7-7.5-5.2-9.4c-3.4-1.9-7.4-2.8-11.8-2.8c-7.4,0-13.3,2.5-17.7,7.5c-4.4,5-6.6,11.5-6.6,19.6c0,8.1,5.8,12.2,17.4,12.2
		c10.2,0,17.4-3.8,21.4-11.5L520.3,297.3z"/>
</g>
<path class="st3" d="M442.2,106.1c0,56-93.8,101.4-209.6,101.4C116.8,207.5,23,162.1,23,106.1c0-56,93.8-101.4,209.6-101.4
	C348.4,4.7,442.2,50.1,442.2,106.1z"/>
<g>
	<path class="st4" d="M227.3,170.9c-9.2-0.1-16.4-0.2-21.6-0.2c-5.6,0-13.3,0.1-23.2,0.2l5.7-17.1c-5.9,3.7-10.8,6.6-14.9,8.6
		c-4,2-8.9,3.9-14.5,5.6c-5.7,1.7-11.6,3-17.9,3.9c-6.3,0.8-12.7,1.3-19.2,1.3c-10.8,0-20.6-1.1-29.5-3.4
		c-8.9-2.3-16.1-5.5-21.7-9.6c-5.6-4.1-9.2-9.1-10.9-14.8c-1.7-5.7-1.8-11.6-0.2-17.8c2.1-8.5,7.1-16.9,14.7-25
		c7.7-8.1,17-14.7,28.1-19.7c11.1-5,23.1-8.6,36-10.7c12.9-2.1,26.5-3.1,40.7-3.1c10.2,0,21.7,0.6,34.4,1.7
		c2.9-8.5,5.5-17.4,7.8-26.7l1.7-6.7c10.5,0.1,18.6,0.2,24.2,0.2c7.3,0,15.5-0.1,24.6-0.2c-6.7,16.6-14.8,39.1-24.3,67.6
		C237.8,133.6,231.1,155.5,227.3,170.9z M206.5,89.5c-8-1.5-15.9-2.3-23.7-2.3c-8.9,0-17.5,0.7-26,2.2c-8.4,1.4-16.2,3.9-23.3,7.4
		c-7.1,3.5-13,7.9-17.8,13.4c-4.7,5.5-7.7,10.7-9,15.8c-1.3,5.1-0.9,9.7,1.1,13.9c2,4.2,6,7.5,11.9,10c5.9,2.4,13,3.6,21.2,3.6
		c6.2,0,12-0.6,17.3-1.9c5.4-1.3,10.5-3.3,15.3-5.9c4.8-2.7,9.2-6.1,13.1-10.3c3.9-4.2,7.4-9.8,10.4-16.8
		C199.2,113.4,202.3,103.7,206.5,89.5z"/>
</g>
<g>
	<path class="st4" d="M178.2,171.4c7.2-17.6,15.4-40.5,24.7-68.5c9.3-28.1,16.1-50.8,20.5-68.3c21.9-2.1,38.8-3.4,50.7-4.1
		c11.9-0.7,23.6-1,35.2-1c15.2,0,28.9,1,41,3c12.2,2,21.5,5.4,27.9,10.1c6.4,4.7,10.7,10.2,12.8,16.4c2.1,6.2,2.3,12.8,0.6,19.6
		c-1.7,6.9-5.2,13.5-10.2,19.9c-5.1,6.4-11.9,12.1-20.3,17.2c-8.5,5.1-17.8,8.8-27.8,11.1c-10.1,2.3-20.7,3.4-32,3.4
		c-6.6,0-13.1-0.4-19.3-1.3c-6.2-0.9-11.6-2.1-16.1-3.5c-4.5-1.4-8.2-2.9-10.9-4.4c-2.8-1.5-6.2-3.7-10.3-6.7l-13.1,41.2l-1.8,6.4
		c-0.3,0.8-1.2,4-2.6,9.5c-10.3-0.1-18.3-0.1-23.9-0.1L178.2,171.4z M265.9,52c-1.6,3.4-2.9,6.4-3.8,8.8l-3.6,10.5
		c-1.6,4.6-2.7,7.9-3.2,10.1c-1,3.9-1.2,7.6-0.7,11.1c0.5,3.5,2.5,6.8,5.9,9.8c3.5,3,7.9,5.2,13.3,6.8c5.4,1.6,11.2,2.3,17.3,2.3
		c8.5,0,16.6-1.4,24.3-4.1c7.7-2.8,14.1-6.8,19.3-12.1c5.2-5.3,8.5-11,10-17c1.7-6.7,1-12.3-2.1-16.9c-3.1-4.6-7.9-7.9-14.4-10
		c-6.5-2.1-14.3-3.1-23.3-3.1C293.3,48.1,280.3,49.4,265.9,52z"/>
</g>
</svg>
